<?xml version="1.0" standalone="no"?>
<!DOCTYPE svg PUBLIC "-//W3C//DTD SVG 20010904//EN"
 "http://www.w3.org/TR/2001/REC-SVG-20010904/DTD/svg10.dtd">
<svg version="1.0" xmlns="http://www.w3.org/2000/svg"
 width="376.000000pt" height="286.000000pt" viewBox="0 0 376.000000 286.000000"
 preserveAspectRatio="xMidYMid meet">

<g transform="translate(0.000000,286.000000) scale(0.100000,-0.100000)"
fill="#b3b9bc" stroke="none">
<path d="M1035 2249 c-55 -45 -101 -84 -103 -88 -3 -8 103 -101 116 -101 5 0
26 14 47 30 21 17 42 29 47 28 4 -2 69 -55 144 -118 l135 -115 -78 -72 c-43
-40 -84 -73 -91 -73 -13 0 -142 106 -332 274 -41 36 -79 66 -84 66 -5 0 -37
-23 -72 -52 l-64 -51 0 -533 0 -532 48 -38 c26 -21 53 -44 60 -51 7 -7 18 -13
23 -13 6 0 100 76 209 170 110 93 203 170 208 170 17 0 163 -133 160 -146 -3
-15 -257 -234 -271 -234 -5 0 -27 14 -48 31 -23 18 -44 27 -51 23 -22 -13
-108 -89 -108 -95 0 -7 185 -158 203 -165 9 -3 99 67 233 182 121 103 306 261
413 353 l194 165 -53 48 c-30 26 -60 48 -68 48 -8 0 -77 -54 -154 -120 -77
-66 -144 -120 -150 -120 -5 0 -72 54 -148 120 -77 66 -145 120 -152 120 -7 -1
-94 -70 -192 -155 -99 -85 -183 -152 -188 -149 -10 7 -11 771 0 778 4 2 89
-65 187 -149 99 -85 185 -154 192 -155 6 0 52 35 103 78 199 168 198 167 218
150 9 -8 191 -163 403 -344 212 -181 521 -445 687 -587 167 -142 309 -260 317
-263 13 -5 215 151 215 167 0 6 -84 79 -108 93 -7 4 -28 -5 -51 -23 -21 -17
-42 -31 -46 -31 -17 0 -275 221 -275 236 0 13 148 144 162 144 5 0 97 -75 204
-167 108 -93 200 -170 205 -171 5 -2 38 20 74 48 l65 52 0 533 0 533 -64 51
c-35 28 -66 51 -69 51 -5 0 -53 -40 -285 -237 -67 -57 -127 -103 -134 -103 -7
0 -48 33 -91 73 l-78 72 136 115 c74 63 140 117 145 118 6 2 26 -10 46 -27 19
-17 39 -31 43 -31 11 0 103 75 112 93 5 9 -19 35 -78 82 -47 39 -95 76 -105
84 -22 15 13 43 -398 -308 -418 -357 -450 -385 -450 -389 0 -5 72 -69 102 -90
19 -14 34 -4 163 109 78 69 151 129 156 129 8 0 266 -216 274 -230 14 -22 41
-6 157 93 66 56 150 126 187 156 l66 54 3 -388 c1 -214 -1 -392 -5 -396 -5 -5
-89 61 -188 146 -99 85 -185 155 -192 155 -7 0 -75 -54 -152 -120 -77 -66
-144 -120 -150 -120 -5 0 -16 6 -23 13 -7 7 -44 39 -83 72 -38 32 -128 108
-200 170 -71 61 -224 192 -340 290 -349 297 -453 386 -619 529 -88 75 -162
136 -165 136 -4 0 -51 -36 -106 -81z"/>
</g>
</svg>
